<?xml version="1.0" standalone="no"?><!DOCTYPE svg PUBLIC "-//W3C//DTD SVG 1.1//EN" "http://www.w3.org/Graphics/SVG/1.1/DTD/svg11.dtd"><svg t="1718776570494" class="icon" viewBox="0 0 1024 1024" version="1.1" xmlns="http://www.w3.org/2000/svg" p-id="4487" xmlns:xlink="http://www.w3.org/1999/xlink" width="200" height="200"><path d="M832 448a64 64 0 0 1 64 64v320a64 64 0 0 1-64 64H512a64 64 0 0 1-64-64V512a64 64 0 0 1 64-64h320z m-576.448 218.496L256 672V832h96a32 32 0 0 1 31.488 26.24L384 864a32 32 0 0 1-26.24 31.488L352 896h-128a32 32 0 0 1-31.488-26.24L192 864v-114.816l-41.344 41.472a32 32 0 0 1-40.832 3.648l-4.48-3.648a32 32 0 0 1-3.648-40.832l3.648-4.48 96-96a32 32 0 0 1 54.208 17.152zM832 512H512v320h320V512z m-9.344 73.344a32 32 0 0 1 3.648 40.832l-3.648 4.48-128 128a32 32 0 0 1-35.456 6.656l-4.928-2.688-96-64a32 32 0 0 1 30.4-56l5.12 2.752 74.112 49.408 109.44-109.44a32 32 0 0 1 45.312 0zM512 128a64 64 0 0 1 64 64v192H512V192H192v320h192v64H192a64 64 0 0 1-64-64V192a64 64 0 0 1 64-64h320z m288-0.064a32 32 0 0 1 31.488 26.24L832 160v114.816l41.344-41.472a32 32 0 0 1 40.832-3.648l4.48 3.648a32 32 0 0 1 3.648 40.832l-3.648 4.48-96 96a32 32 0 0 1-54.208-17.152L768 351.936v-160h-96a32 32 0 0 1-31.488-26.24L640 159.936a32 32 0 0 1 26.24-31.488L672 128h128z" p-id="4488"></path></svg>