<?xml version="1.0" standalone="no"?><!DOCTYPE svg PUBLIC "-//W3C//DTD SVG 1.1//EN" "http://www.w3.org/Graphics/SVG/1.1/DTD/svg11.dtd"><svg t="1716264773959" class="icon" viewBox="0 0 1024 1024" version="1.1" xmlns="http://www.w3.org/2000/svg" p-id="3668" xmlns:xlink="http://www.w3.org/1999/xlink" width="200" height="200"><path d="M372.224 932.352h306.176c13.312 0 25.088-8.704 29.184-21.504 21.504-90.112 48.128-180.224 79.36-267.776 0.512-1.024 0.512-1.536 1.024-2.048 19.968-46.08 53.248-93.696 82.432-135.168 24.576-35.328 54.784-79.872 57.856-97.792 3.072-17.408-3.584-34.304-14.848-44.544-11.264-9.728-32.768-9.216-55.808 3.072-5.632 3.072-69.12 77.824-113.152 125.44-13.312 14.336-28.16 19.968-35.328 15.872-4.096-2.56-7.168-11.776-1.536-30.72 32.256-101.376 59.904-218.112 57.344-250.88-4.096-23.552-20.48-41.984-40.96-42.496-23.04-0.512-35.84 10.24-48.128 22.528-18.944 22.016-44.032 102.4-64 191.488-7.68 34.816-23.04 40.96-29.184 40.96-11.264 0-6.656-32.256-6.656-51.712 2.048-127.488-6.144-225.28-19.968-257.536-6.144-9.728-23.552-35.328-52.224-35.328-36.352 0-46.592 31.744-49.664 53.76-3.072 22.016 7.68 116.224 11.776 246.272 0.512 18.432-5.632 43.52-16.384 48.128-12.8 5.632-35.328-12.8-41.984-30.208-29.696-77.824-50.688-120.832-96.768-192-18.432-28.672-45.056-25.088-60.416-19.456-8.192 3.072-29.184 10.24-30.72 38.4-1.536 40.448 48.128 181.248 122.88 340.992 7.168 15.872 7.68 39.424-6.144 50.176-13.824 10.752-27.136 1.024-42.496-7.68-120.832-71.68-165.376-54.784-184.832-26.624-23.04 32.768-14.848 56.32-10.24 68.096 4.608 11.776 33.28 37.888 63.488 60.928 28.672 22.016 60.928 47.104 92.672 79.872 53.248 54.272 97.28 103.936 117.248 127.488z" fill="#2c2c2c" p-id="3669"></path></svg>