<?xml version="1.0" standalone="no"?><!DOCTYPE svg PUBLIC "-//W3C//DTD SVG 1.1//EN" "http://www.w3.org/Graphics/SVG/1.1/DTD/svg11.dtd"><svg t="1716265403998" class="icon" viewBox="0 0 1024 1024" version="1.1" xmlns="http://www.w3.org/2000/svg" p-id="15178" xmlns:xlink="http://www.w3.org/1999/xlink" width="200" height="200"><path d="M128 778.688c0-23.616 18.112-42.688 40.448-42.688h687.104c22.4 0 40.448 19.072 40.448 42.688v106.624c0 23.616-18.112 42.688-40.448 42.688H168.448c-22.4 0-40.448-19.072-40.448-42.688v-106.624z" fill="#000000" p-id="15179"></path><path d="M96 778.688v106.624q0 30.464 20.608 52.224 21.312 22.464 51.84 22.464h687.104q30.528 0 51.84-22.464 20.608-21.76 20.608-52.224v-106.624q0-30.464-20.608-52.224-21.312-22.464-51.84-22.464H168.448q-30.528 0-51.84 22.464-20.608 21.76-20.608 52.224zM168.448 896q-8.448 0-8.448-10.688v-106.624q0-4.928 3.072-8.192 2.368-2.496 5.376-2.496h687.104q8.448 0 8.448 10.688v106.624q0 10.688-8.448 10.688H168.448z" fill="#000000" p-id="15180"></path><path d="M120 642.688v205.312q0 30.848 21.696 52.672 21.76 22.016 52.672 22.016h629.888q30.912 0 52.736-22.016 21.632-21.824 21.632-52.672v-205.312q0-30.848-21.632-52.736-21.824-21.952-52.736-21.952H194.368q-30.912 0-52.672 21.952-21.76 21.888-21.76 52.736z m704 205.312H194.56v-205.312h-0.256 629.888-0.256v205.312z" fill="#000000" p-id="15181"></path><path d="M375.488 262.4l-91.52 329.216q-1.28 4.864-1.28 9.984 0 3.648 0.64 7.296 0.768 3.584 2.176 7.04 1.408 3.328 3.456 6.4 2.048 3.072 4.672 5.632 2.56 2.624 5.632 4.672 3.072 2.048 6.4 3.456 3.456 1.408 7.04 2.112 3.648 0.704 7.296 0.704h384q5.12 0 9.984-1.344 7.168-1.984 12.992-6.528 5.888-4.608 9.536-11.072 3.648-6.464 4.544-13.824 0.896-7.36-1.088-14.528L648.512 262.4q-12.16-43.712-54.016-43.712H429.44q-41.856 0-54.016 43.712z m-6.4 301.888h285.824L579.648 293.312H444.352L369.088 564.288z" fill="#000000" p-id="15182"></path><path d="M320 64m128 0l128 0q128 0 128 128l0 0q0 128-128 128l-128 0q-128 0-128-128l0 0q0-128 128-128Z" fill="#000000" p-id="15183"></path></svg>