<?xml version="1.0" standalone="no"?><!DOCTYPE svg PUBLIC "-//W3C//DTD SVG 1.1//EN" "http://www.w3.org/Graphics/SVG/1.1/DTD/svg11.dtd"><svg t="1716264905039" class="icon" viewBox="0 0 1024 1024" version="1.1" xmlns="http://www.w3.org/2000/svg" p-id="7659" xmlns:xlink="http://www.w3.org/1999/xlink" width="200" height="200"><path d="M587.351877 632.432792a625.946954 625.946954 0 0 1-77.57571 4.705411 624.929567 624.929567 0 0 1-147.266674-17.295568 38.151988 38.151988 0 1 0-17.931435 74.142031 695.129226 695.129226 0 0 0 165.325283 19.457514 727.304069 727.304069 0 0 0 86.859359-5.214105 38.151988 38.151988 0 1 0-9.28365-76.303977zM129.528018 544.174525a38.151988 38.151988 0 0 0 4.705412-53.66713A208.818549 208.818549 0 0 1 81.710859 356.72109C81.710859 202.078364 273.742533 76.303976 509.776167 76.303976s428.192481 125.774388 428.192482 280.417114a200.170765 200.170765 0 0 1-39.805242 117.253777 38.151988 38.151988 0 1 0 62.060568 44.38348 278.382341 278.382341 0 0 0 54.04865-161.637257c0-196.737086-226.368464-356.085223-504.496458-356.085224S5.406883 159.984004 5.406883 356.72109a283.342099 283.342099 0 0 0 70.454005 182.748024 38.151988 38.151988 0 0 0 53.66713 4.705411z" p-id="7660"></path><path d="M581.501905 428.446828l196.228393 485.29329 71.725738-179.314345 168.758961-63.3323L581.501905 428.446828zM272.4708 716.621512a103.519061 103.519061 0 1 0-81.772428 23.018367c14.243409 12.717329 44.892173 45.400866 46.926946 89.021305 1.907599 40.949801-22.255326 84.315894-71.852911 128.699374a38.151988 38.151988 0 0 0 25.434659 66.638806 37.388948 37.388948 0 0 0 25.434658-9.792344c67.910539-60.788835 100.594076-124.757002 97.160397-190.759941a194.57514 194.57514 0 0 0-41.331321-106.825567zM205.959168 610.431812a27.342258 27.342258 0 1 1-27.215085 27.215085A27.215085 27.215085 0 0 1 205.959168 610.431812z" p-id="7661"></path></svg>