<?xml version="1.0" standalone="no"?><!DOCTYPE svg PUBLIC "-//W3C//DTD SVG 1.1//EN" "http://www.w3.org/Graphics/SVG/1.1/DTD/svg11.dtd"><svg t="1716264839285" class="icon" viewBox="0 0 1025 1024" version="1.1" xmlns="http://www.w3.org/2000/svg" p-id="5686" xmlns:xlink="http://www.w3.org/1999/xlink" width="200.1953125" height="200"><path d="M807.129383 295.128871l-72.119881 72.11988L828.6119 460.851149H563.149363V195.388611l93.602397 93.602398 72.11988-72.11988L512.000511 0 295.129383 216.871129l72.11988 72.11988L460.85166 195.388611V460.851149H195.389123l93.602397-93.602398-72.11988-72.11988L0.000511 512l216.871129 216.871129 72.11988-72.11988L195.389123 563.148851H460.85166v265.462538l-93.602397-93.602398-72.11988 72.11988L512.000511 1024l216.871129-216.871129-72.11988-72.11988L563.149363 828.611389V563.148851h265.462537l-93.602398 93.602398 72.119881 72.11988L1024.000511 512l-216.871128-216.871129z" fill="#333333" p-id="5687"></path></svg>