<?xml version="1.0" standalone="no"?><!DOCTYPE svg PUBLIC "-//W3C//DTD SVG 1.1//EN" "http://www.w3.org/Graphics/SVG/1.1/DTD/svg11.dtd"><svg t="1718784080818" class="icon" viewBox="0 0 1024 1024" version="1.1" xmlns="http://www.w3.org/2000/svg" p-id="17053" xmlns:xlink="http://www.w3.org/1999/xlink" width="200" height="200"><path d="M34.048 1008H0v-59.648h34.048v59.648z m0-117.888H0v-77.056h34.048v77.056z m0-135.296H0v-77.056h34.048v77.056z m0-135.168H0v-77.056h34.048v77.056z m0-135.296H0v-77.056h34.048v77.056z m0-135.296H0v-77.056h34.048v77.056z m0-135.296H0v-77.056h34.048V213.76z m0-135.296H0V1.408h34.048v77.056z m0 0M1024 1008h-34.048v-59.648H1024v59.648z m0-117.888h-34.048v-77.056H1024v77.056z m0-135.296h-34.048v-77.056H1024v77.056z m0-135.168h-34.048v-77.056H1024v77.056z m0-135.296h-34.048v-77.056H1024v77.056z m0-135.296h-34.048v-77.056H1024v77.056z m0-135.296h-34.048v-77.056H1024V213.76z m0-135.296h-34.048V1.408H1024v77.056z m0 0" fill="#666666" p-id="17054"></path><path d="M954.368 32h-82.176V0h82.176v32z m-144.256 0h-82.176V0h82.176v32z m-144.256 0H583.68V0h82.176v32z m-144.384 0h-82.176V0h82.176v32z m-144.256 0h-82.176V0h82.176v32zM232.96 32h-82.176V0H232.96v32zM88.576 32H6.4V0h82.176v32z m865.792 992h-82.176v-32h82.176v32z m-144.256 0h-82.176v-32h82.176v32z m-144.256 0H583.68v-32h82.176v32z m-144.384 0h-82.176v-32h82.176v32z m-144.256 0h-82.176v-32h82.176v32zM232.96 1024h-82.176v-32H232.96v32z m-144.384 0H6.4v-32h82.176v32zM1022.592 1.408" fill="#666666" p-id="17055"></path><path d="M925.44 940.8H99.456V89.6H925.44v851.2z m-40.96-809.088H140.416V898.56H884.48V131.712z" p-id="17056"></path></svg>