<?xml version="1.0" standalone="no"?><!DOCTYPE svg PUBLIC "-//W3C//DTD SVG 1.1//EN" "http://www.w3.org/Graphics/SVG/1.1/DTD/svg11.dtd"><svg t="1716264962185" class="icon" viewBox="0 0 1024 1024" version="1.1" xmlns="http://www.w3.org/2000/svg" p-id="10862" xmlns:xlink="http://www.w3.org/1999/xlink" width="200" height="200"><path d="M882.515023 665.633011q33.407092 21.259059 53.653815 56.690823t20.246723 77.949882q0 33.407092-12.654202 62.258672t-34.419428 50.110638-50.616806 33.91326-62.258672 12.654202q-42.518117 0-77.443714-20.246723t-56.184655-52.641479q-4.049345-4.049345-7.086353-8.604857t-8.098689-9.617193q-16.197378-22.271395-20.246723-54.666151t-3.037008-67.320352 2.024672-68.838857-5.061681-60.234q-11.135697-20.246723-25.308403-44.036622t-31.38242-48.085966q-3.037008-4.049345-5.567849-7.086353t-4.555513-6.074017q-19.234386 23.283731-37.456437 46.567462t-37.456437 48.592134q-5.061681 6.074017-8.604857 12.148034t-8.604857 12.148034q-9.111025 19.234386-9.111025 33.407092t3.543176 27.839244 8.098689 27.839244 5.061681 32.900924-5.061681 44.036622-21.765227 60.740168q-17.209714 45.555126-57.703159 74.406705t-92.122588 28.85158q-33.407092 0-62.258672-12.654202t-50.616806-34.419428-34.419428-50.616806-12.654202-62.258672q0-36.444101 15.185042-67.826521t41.505781-53.653815q25.308403-26.320739 53.147647-44.036622t55.172319-32.900924 52.135311-30.370084 43.024285-36.444101q4.049345-5.061681 7.592521-10.123361t7.592521-10.123361l1.012336-1.012336q4.049345-8.098689 11.135697-15.185042 14.172706-18.22205 28.345412-37.962605t29.357748-39.987277q-26.320739-27.333075-45.048958-44.54279t-35.937933-40.493445q-35.431764-46.567462-59.727832-97.184268t-37.456437-96.171932-13.666538-81.493058 12.654202-53.147647q7.086353-5.061681 20.246723-7.592521t21.259059 9.617193q18.22205 27.333075 41.505781 62.76484t50.616806 76.431378 56.690823 85.542403 58.715495 88.073243q6.074017-8.098689 11.641865-16.703546t11.641865-16.703546q27.333075-39.481109 52.641479-81.493058t47.07363-80.480722 38.468773-69.345025 25.814571-47.07363q7.086353-11.135697 24.296067-11.641865t29.357748 10.629529q6.074017 6.074017 10.629529 34.925596t-3.037008 74.406705-32.394756 104.776789-77.443714 126.035848l-32.394756 40.493445q-16.197378 20.246723-33.407092 40.493445 23.283731 35.431764 44.036622 66.814184t37.962605 56.690823q25.308403 26.320739 51.122974 41.505781t49.098302 25.814571 43.530453 19.740554 35.431764 23.283731zM292.32306 874.174253q32.394756 0 55.172319-23.283731t22.777563-55.678487-22.777563-55.678487-55.172319-23.283731-55.678487 23.283731-23.283731 55.678487 23.283731 55.678487 55.678487 23.283731zM795.454116 874.174253q32.394756 0 55.172319-22.777563t22.777563-55.172319-22.777563-55.678487-55.172319-23.283731-55.678487 23.283731-23.283731 55.678487q0 16.197378 6.074017 30.370084t16.703546 24.802235 25.308403 16.703546 30.876252 6.074017z" p-id="10863"></path></svg>