<?xml version="1.0" standalone="no"?><!DOCTYPE svg PUBLIC "-//W3C//DTD SVG 1.1//EN" "http://www.w3.org/Graphics/SVG/1.1/DTD/svg11.dtd"><svg class="icon" width="200px" height="200.00px" viewBox="0 0 1024 1024" version="1.1" xmlns="http://www.w3.org/2000/svg"><path d="M298.666667 544H170.666667a32 32 0 0 1 0-64h128a32 32 0 0 1 0 64zM298.666667 288H170.666667a32 32 0 0 1 0-64h128a32 32 0 0 1 0 64zM864 800H160a32 32 0 0 1 0-64h704a32 32 0 0 1 0 64zM876.373333 629.333333H446.293333a51.626667 51.626667 0 0 1-51.626666-51.2v-345.6a51.626667 51.626667 0 0 1 51.626666-51.2h430.08a51.626667 51.626667 0 0 1 51.626667 51.2v345.6a51.626667 51.626667 0 0 1-51.626667 51.2z m-417.706666-64h405.333333v-320h-405.333333z m417.706666-320z" fill="#555555" /><path d="M896 586.666667a32 32 0 0 1-25.173333-12.373334l-92.16-116.906666-39.253334 49.493333a46.933333 46.933333 0 0 1-16.213333 14.08 47.36 47.36 0 0 1-45.226667 0 52.48 52.48 0 0 1-16.64-14.08L563.626667 384l-111.786667 140.8a32.042667 32.042667 0 0 1-50.346667-39.68l122.88-156.16a52.48 52.48 0 0 1 16.64-14.08 49.92 49.92 0 0 1 45.226667 0 52.48 52.48 0 0 1 16.64 14.08l97.706667 124.16 38.826666-49.493333a52.48 52.48 0 0 1 16.64-14.08 50.773333 50.773333 0 0 1 45.653334 0 51.626667 51.626667 0 0 1 16.213333 14.506666l103.253333 130.986667a31.573333 31.573333 0 0 1-5.546666 44.8 30.72 30.72 0 0 1-19.626667 6.826667zM689.066667 469.333333z m22.613333 0z m56.32-26.453333z m22.613333 0zM554.666667 368.64z m22.186666 0zM746.666667 341.333333a21.333333 21.333333 0 1 0-21.333334-21.333333 21.333333 21.333333 0 0 0 21.333334 21.333333z" fill="#555555" /></svg>