<?xml version="1.0" standalone="no"?><!DOCTYPE svg PUBLIC "-//W3C//DTD SVG 1.1//EN" "http://www.w3.org/Graphics/SVG/1.1/DTD/svg11.dtd"><svg class="icon" width="200px" height="200.00px" viewBox="0 0 1024 1024" version="1.1" xmlns="http://www.w3.org/2000/svg"><path d="M853.333333 544h-128a32 32 0 0 1 0-64h128a32 32 0 0 1 0 64zM853.333333 288h-128a32 32 0 0 1 0-64h128a32 32 0 0 1 0 64zM864 800H160a32 32 0 0 1 0-64h704a32 32 0 0 1 0 64zM577.706667 629.333333H147.626667a51.626667 51.626667 0 0 1-51.626667-51.2v-345.6a51.626667 51.626667 0 0 1 51.626667-51.2h430.08a51.626667 51.626667 0 0 1 51.626666 51.2v345.6a51.626667 51.626667 0 0 1-51.626666 51.2z m-417.706667-64h405.333333v-320h-405.333333z m417.706667-320z" fill="#555555" /><path d="M597.333333 586.666667a32 32 0 0 1-25.173333-12.373334l-92.16-116.906666-39.253333 49.493333a46.933333 46.933333 0 0 1-16.213334 14.08 49.066667 49.066667 0 0 1-61.866666-14.08L264.96 384l-111.786667 140.8a32.042667 32.042667 0 0 1-50.346666-39.68l122.88-156.16a58.453333 58.453333 0 0 1 16.64-14.08 48.64 48.64 0 0 1 45.226666 0 47.36 47.36 0 0 1 16.64 14.08l97.706667 123.733333 38.826667-49.493333a52.48 52.48 0 0 1 16.64-14.08 50.773333 50.773333 0 0 1 45.653333 0 55.893333 55.893333 0 0 1 16.213333 14.08l103.253334 131.413333a31.573333 31.573333 0 0 1-5.546667 44.8 30.72 30.72 0 0 1-19.626667 7.253334zM390.4 469.333333z m22.613333 0z m56.32-26.453333z m22.613334 0zM256 368.64z m22.613333 0zM448 341.333333a21.333333 21.333333 0 1 0-21.333333-21.333333 21.333333 21.333333 0 0 0 21.333333 21.333333z" fill="#555555" /></svg>