<?xml version="1.0" standalone="no"?><!DOCTYPE svg PUBLIC "-//W3C//DTD SVG 1.1//EN" "http://www.w3.org/Graphics/SVG/1.1/DTD/svg11.dtd"><svg t="1716264472178" class="icon" viewBox="0 0 1024 1024" version="1.1" xmlns="http://www.w3.org/2000/svg" p-id="4060" xmlns:xlink="http://www.w3.org/1999/xlink" width="200" height="200"><path d="M959.146667 34.133333H64.853333c-17.066667 0-30.72 13.653333-30.72 30.72v897.706667c0 13.653333 13.653333 27.306667 30.72 27.306667h894.293334c17.066667 0 30.72-13.653333 30.72-30.72V64.853333c0-17.066667-13.653333-30.72-30.72-30.72z m-27.306667 897.706667H95.573333V92.16h836.266667v839.68z" p-id="4061"></path><path d="M324.266667 413.013333c20.48 0 37.546667-17.066667 37.546666-37.546666v-10.24h126.293334v314.026666H409.6c-20.48 0-37.546667 17.066667-37.546667 37.546667 0 20.48 17.066667 37.546667 37.546667 37.546667h235.52c20.48 0 37.546667-17.066667 37.546667-37.546667 0-20.48-17.066667-37.546667-37.546667-37.546667h-78.506667v-314.026666h122.88v10.24c0 20.48 17.066667 37.546667 37.546667 37.546666 20.48 0 37.546667-17.066667 37.546667-37.546666V324.266667c0-20.48-17.066667-37.546667-37.546667-37.546667H324.266667c-20.48 0-37.546667 17.066667-37.546667 37.546667v47.786666c-3.413333 23.893333 13.653333 40.96 37.546667 40.96z" p-id="4062"></path></svg>