<?xml version="1.0" standalone="no"?><!DOCTYPE svg PUBLIC "-//W3C//DTD SVG 1.1//EN" "http://www.w3.org/Graphics/SVG/1.1/DTD/svg11.dtd"><svg t="1716264810552" class="icon" viewBox="0 0 1024 1024" version="1.1" xmlns="http://www.w3.org/2000/svg" p-id="4675" xmlns:xlink="http://www.w3.org/1999/xlink" width="200" height="200"><path d="M939 798.4L778.6 650.7c31.1-55.3 48.8-119 48.8-186.9 0-211-171-382-382-382s-382 171-382 382 171 382 382 382c79.2 0 152.8-24.1 213.8-65.4l160.4 147.7c12.1 11.1 27.4 16.6 42.6 16.6 17 0 33.9-6.8 46.3-20.3l34.2-37.1c23.5-25.5 21.9-65.4-3.7-88.9zM102.5 463.7c0-189 153.8-342.8 342.8-342.8s342.8 153.8 342.8 342.8-153.8 342.8-342.8 342.8-342.8-153.7-342.8-342.8z" p-id="4676"></path><path d="M335.6 545.5V383.9l-140 80.8zM552.2 383.9v161.6l140-80.8zM441.8 218.6l-80.9 140h161.7zM441.8 711.2l80.8-140H360.9z" p-id="4677"></path></svg>