<?xml version="1.0" standalone="no"?><!DOCTYPE svg PUBLIC "-//W3C//DTD SVG 1.1//EN" "http://www.w3.org/Graphics/SVG/1.1/DTD/svg11.dtd"><svg t="1716265535840" class="icon" viewBox="0 0 1024 1024" version="1.1" xmlns="http://www.w3.org/2000/svg" p-id="16183" xmlns:xlink="http://www.w3.org/1999/xlink" width="200" height="200"><path d="M567.024534 149.331607m60.339779 60.339778l199.422968 199.422969q60.339779 60.339779 0 120.679557l-184.941421 184.941422q-60.339779 60.339779-120.679558 0l-199.422968-199.422969q-60.339779-60.339779 0-120.679557l184.941421-184.941422q60.339779-60.339779 120.679558 0Z" fill="#666666" p-id="16184"></path><path d="M557.653333 256l211.2 213.333333-302.08 298.666667H346.88l-151.466667-151.466667L557.653333 256m0-85.333333a85.333333 85.333333 0 0 0-60.586666 24.746666L135.253333 554.666667a85.333333 85.333333 0 0 0 0 120.746666L311.466667 853.333333h190.293333l327.253333-327.253333a85.333333 85.333333 0 0 0 0-120.746667l-211.2-211.2A85.333333 85.333333 0 0 0 557.653333 170.666667z" fill="#666666" p-id="16185"></path><path d="M332.8 768m42.666667 0l469.333333 0q42.666667 0 42.666667 42.666667l0 0q0 42.666667-42.666667 42.666666l-469.333333 0q-42.666667 0-42.666667-42.666666l0 0q0-42.666667 42.666667-42.666667Z" fill="#666666" p-id="16186"></path></svg>