<?xml version="1.0" standalone="no"?><!DOCTYPE svg PUBLIC "-//W3C//DTD SVG 1.1//EN" "http://www.w3.org/Graphics/SVG/1.1/DTD/svg11.dtd"><svg t="1716264693494" class="icon" viewBox="0 0 1024 1024" version="1.1" xmlns="http://www.w3.org/2000/svg" p-id="1678" xmlns:xlink="http://www.w3.org/1999/xlink" width="200" height="200"><path d="M561.493333 548.864L64.384 110.933333l15.872 662.272 144.896-115.498666 108.8 233.216 154.666667-72.106667-108.8-233.258667 181.76-36.736zM109.397333 207.445333l359.466667 316.586667-150.613333 30.464 113.664 243.712-77.354667 36.053333-113.578667-243.626666-120.149333 95.701333-11.434667-478.890667z" fill="#FFFFFF" p-id="1679"></path><path d="M109.141333 207.445333l359.509334 316.586667-150.613334 30.464 113.664 243.669333-77.354666 36.053334-113.621334-243.626667-120.106666 95.744-11.477334-478.890667z" fill="#000000" p-id="1680"></path><path d="M880.896 624.896a21.333333 21.333333 0 0 1 36.138667 11.434667L917.333333 640v256a21.333333 21.333333 0 0 1-42.325333 3.84L874.666667 896v-204.544l-219.562667 219.648a21.333333 21.333333 0 0 1-36.138667-11.434667L618.666667 896v-256a21.333333 21.333333 0 0 1 42.325333-3.84l0.341333 3.84v204.458667l219.562667-219.562667z" fill="#000000" p-id="1681"></path><path d="M640 576c31.061333 0 57.472 22.272 63.488 56.32l0.512 7.68v101.418667l146.773333-146.688c35.669333-35.669333 95.317333-17.664 107.605334 32.256l1.194666 5.888 0.426667 7.125333v256a64 64 0 0 1-64 64c-31.061333 0-57.472-22.272-63.488-56.32L832 896v-101.546667l-146.773333 146.773334c-35.669333 35.712-95.317333 17.706667-107.605334-32.213334l-1.194666-5.888L576 896v-256a64 64 0 0 1 64-64z m277.034667 60.330667a21.333333 21.333333 0 0 0-36.138667-11.434667L661.333333 844.458667V640l-0.341333-3.84a21.333333 21.333333 0 0 0-42.325333 3.84v256l0.298666 3.669333a21.333333 21.333333 0 0 0 36.138667 11.434667l219.562667-219.648V896l0.341333 3.84A21.333333 21.333333 0 0 0 917.333333 896v-256l-0.298666-3.669333z" fill="#FFFFFF" p-id="1682"></path></svg>