<?xml version="1.0" standalone="no"?><!DOCTYPE svg PUBLIC "-//W3C//DTD SVG 1.1//EN" "http://www.w3.org/Graphics/SVG/1.1/DTD/svg11.dtd"><svg t="1716265026528" class="icon" viewBox="0 0 1024 1024" version="1.1" xmlns="http://www.w3.org/2000/svg" p-id="12968" xmlns:xlink="http://www.w3.org/1999/xlink" width="200" height="200"><path d="M907.488 116.672A178.496 178.496 0 0 0 780.352 64c-48 0-93.12 18.688-127.008 52.608l-146.048 146.144-60.448-60.48a32.64 32.64 0 1 0-46.144 46.176l83.264 83.296 0.256 0.32 7.584 7.552-316.48 316.704a135.36 135.36 0 0 0-38.176 117.888L87.36 824.064A79.104 79.104 0 0 0 64 880.352c-0.064 21.12 8.32 41.408 23.296 56.288a79.04 79.04 0 0 0 56.32 23.36h0.032c21.12 0.064 41.344-8.32 56.192-23.328l49.6-49.536a135.616 135.616 0 0 0 118.56-38.048l316.512-316.672 7.616 7.616c0.096 0.128 0.256 0.224 0.384 0.32l83.2 83.2a32.576 32.576 0 0 0 55.68-23.072c0-8.64-3.424-16.96-9.568-23.072l-60.448-60.48 146.112-146.112a179.968 179.968 0 0 0 0-254.144zM321.856 802.912a70.72 70.72 0 0 1-68.704 18.176 32.576 32.576 0 0 0-33.216 3.808c-1.12 0.864-2.24 1.76-3.328 2.72L153.664 890.56a14.144 14.144 0 0 1-10.016 4.16 14.336 14.336 0 0 1-10.144-24.48l60.8-60.864c0.416-0.352 4.64-4.992 5.632-6.432 0.448-0.64 2.304-3.872 2.784-4.896a59.84 59.84 0 0 0 1.92-5.28c0.448-1.664 0.96-5.44 0.992-5.6a32.64 32.64 0 0 0-2.112-15.264 70.528 70.528 0 0 1 17.952-69.44l316.48-316.64 100.416 100.416-316.512 316.672z m539.456-478.304l-146.08 146.144-161.76-161.824 146.048-146.144c43.2-43.2 118.56-43.168 161.792 0.064a114.56 114.56 0 0 1 0 161.76z" fill="#000000" p-id="12969"></path></svg>