<?xml version="1.0" standalone="no"?><!DOCTYPE svg PUBLIC "-//W3C//DTD SVG 1.1//EN" "http://www.w3.org/Graphics/SVG/1.1/DTD/svg11.dtd"><svg class="icon" width="200px" height="200.00px" viewBox="0 0 1024 1024" version="1.1" xmlns="http://www.w3.org/2000/svg"><path d="M864 64c53.02 0 96 42.98 96 96v704c0 53.02-42.98 96-96 96H160c-53.02 0-96-42.98-96-96V160c0-53.02 42.98-96 96-96h704z m0 48H160c-26.244 0-47.57 21.062-47.994 47.206L112 160v704c0 26.244 21.062 47.57 47.206 47.994L160 912h704c26.244 0 47.57-21.062 47.994-47.206L912 864V160c0-26.51-21.49-48-48-48zM225.992 518.538c13.254 0 24 10.744 24 24l-0.002 198.06 200.168-200.168c9.372-9.372 24.568-9.372 33.94 0 9.374 9.372 9.374 24.568 0 33.94L283.932 774.54h198.06c13.256 0 24 10.744 24 24 0 13.254-10.744 24-24 24h-256c-13.254 0-24-10.746-24-24v-256c0-13.256 10.746-24 24-24z m571.086-316.088c13.256 0 24 10.746 24 24v256c0 13.256-10.744 24-24 24-13.254 0-24-10.744-24-24l0.002-198.058-200.168 200.166c-9.372 9.374-24.568 9.374-33.94 0-9.374-9.372-9.374-24.568 0-33.94l200.166-200.168h-198.06c-13.254 0-24-10.744-24-24 0-13.254 10.746-24 24-24h256z" fill="#666666" /></svg>