<?xml version="1.0" standalone="no"?><!DOCTYPE svg PUBLIC "-//W3C//DTD SVG 1.1//EN" "http://www.w3.org/Graphics/SVG/1.1/DTD/svg11.dtd"><svg t="1720330674186" class="icon" viewBox="0 0 1024 1024" version="1.1" xmlns="http://www.w3.org/2000/svg" p-id="2549" xmlns:xlink="http://www.w3.org/1999/xlink" width="200" height="200"><path d="M64 64.96l0 195.136 195.648 0L259.648 64.96 64 64.96zM208.064 208.064 115.52 208.064 115.52 116.992l92.608 0L208.128 208.064z" fill="#8A8F93" p-id="2550"></path><path d="M764.352 64.96l0 195.136L960 260.096 960 64.96 764.352 64.96zM908.48 208.064l-92.608 0L815.872 116.992l92.608 0L908.48 208.064z" fill="#8A8F93" p-id="2551"></path><path d="M64 763.776l0 195.264 195.648 0 0-195.264L64 763.776zM208.064 907.008 115.52 907.008l0-91.136 92.608 0L208.128 907.008z" fill="#8A8F93" p-id="2552"></path><path d="M764.352 763.776l0 195.264L960 959.04l0-195.264L764.352 763.776zM908.48 907.008l-92.608 0 0-91.136 92.608 0L908.48 907.008z" fill="#8A8F93" p-id="2553"></path><path d="M240.576 154.944l560 0 0 50.752-560 0 0-50.752Z" fill="#8A8F93" p-id="2554"></path><path d="M240.576 820.736l560 0 0 50.88-560 0 0-50.88Z" fill="#8A8F93" p-id="2555"></path><path d="M154.816 240.832l50.752 0 0 560-50.752 0 0-560Z" fill="#8A8F93" p-id="2556"></path><path d="M820.608 240.832l50.752 0 0 560-50.752 0 0-560Z" fill="#8A8F93" p-id="2557"></path></svg>