<?xml version="1.0" standalone="no"?><!DOCTYPE svg PUBLIC "-//W3C//DTD SVG 1.1//EN" "http://www.w3.org/Graphics/SVG/1.1/DTD/svg11.dtd"><svg t="1718703973145" class="icon" viewBox="0 0 1024 1024" version="1.1" xmlns="http://www.w3.org/2000/svg" p-id="2325" xmlns:xlink="http://www.w3.org/1999/xlink" width="200" height="200"><path d="M201.8 64h620.4c76.1 0 137.9 61.7 137.9 137.9v620.4c0 76.1-61.7 137.8-137.9 137.8H201.8c-76.1 0-137.9-61.7-137.9-137.8V201.8C63.9 125.7 125.7 64 201.8 64z" fill="#E7F5FF" p-id="2326"></path><path d="M822.2 132.9c38 0 68.9 30.9 68.9 68.9v620.4c0 38-30.9 68.9-68.9 68.9H201.8c-38 0-68.9-30.9-68.9-68.9V201.8c0-38 30.9-68.9 68.9-68.9h620.4m0-68.9H201.8c-76.1 0-137.9 61.7-137.9 137.9v620.4c0 76.1 61.7 137.8 137.9 137.8h620.4c76.1 0 137.9-61.7 137.9-137.8V201.8c0-76.1-61.8-137.8-137.9-137.8z" fill="#00A0E9" p-id="2327"></path></svg>