<?xml version="1.0" standalone="no"?><!DOCTYPE svg PUBLIC "-//W3C//DTD SVG 1.1//EN" "http://www.w3.org/Graphics/SVG/1.1/DTD/svg11.dtd"><svg t="1718703992876" class="icon" viewBox="0 0 1024 1024" version="1.1" xmlns="http://www.w3.org/2000/svg" p-id="2592" xmlns:xlink="http://www.w3.org/1999/xlink" width="200" height="200"><path d="M202.6 64.2h619.9c76.1 0 137.8 61.7 137.8 137.7v619.9c0 76.1-61.7 137.7-137.8 137.7H202.6c-76.1 0-137.7-61.7-137.7-137.7V202c0-76.1 61.7-137.8 137.7-137.8z" fill="#E7F5FF" p-id="2593"></path><path d="M822.5 133.1c38 0 68.9 30.9 68.9 68.9v619.9c0 38-30.9 68.9-68.9 68.9H202.6c-38 0-68.9-30.9-68.9-68.9V202c0-38 30.9-68.9 68.9-68.9h619.9m0-68.9H202.6c-76.1 0-137.7 61.7-137.7 137.7v619.9c0 76.1 61.7 137.7 137.7 137.7h619.9c76.1 0 137.8-61.7 137.8-137.7V202c0-76.1-61.7-137.8-137.8-137.8z" fill="#00A0E9" p-id="2594"></path><path d="M168.3 487.1l43.9-40.7 201.9 165.3s133.7-133.5 408.4-355.1l34.4 68.9S627.6 546.6 413 773.5L168.3 487.1z" fill="#00A0E9" p-id="2595"></path></svg>