<?xml version="1.0" standalone="no"?><!DOCTYPE svg PUBLIC "-//W3C//DTD SVG 1.1//EN" "http://www.w3.org/Graphics/SVG/1.1/DTD/svg11.dtd"><svg t="1718936257234" class="icon" viewBox="0 0 1024 1024" version="1.1" xmlns="http://www.w3.org/2000/svg" p-id="17931" xmlns:xlink="http://www.w3.org/1999/xlink" width="200" height="200"><path d="M645.071238 97.52381L828.952381 281.258667V414.47619h48.761905v390.095239h-48.761905v48.761904a73.142857 73.142857 0 0 1-73.142857 73.142857H268.190476a73.142857 73.142857 0 0 1-73.142857-73.142857v-48.761904H146.285714V414.47619h48.761905V170.666667a73.142857 73.142857 0 0 1 73.142857-73.142857h376.880762zM755.809524 804.571429H268.190476v48.761904h487.619048v-48.761904zM327.704381 516.87619h-37.059048v121.734096c0 4.705524-0.609524 9.337905-1.852952 13.897143a29.988571 29.988571 0 0 1-5.558857 10.556952c-3.072 3.096381-6.656 5.36381-10.727619 6.875429-3.85219 1.219048-7.850667 2.096762-12.068572 2.58438L256 702.171429a134.095238 134.095238 0 0 0 27.428571-2.779429c4.924952-1.121524 9.752381-2.584381 14.457905-4.437333a63.146667 63.146667 0 0 0 11.117714-6.680381c6.41219-4.949333 11.166476-11.117714 14.262858-18.529524 2.950095-7.899429 4.437333-16.11581 4.437333-24.624762V516.87619z m383.683048 2.730667c-9.606095 0.26819-19.017143 1.706667-28.184381 4.242286a82.773333 82.773333 0 0 0-29.842286 17.554286c-8.484571 8.338286-14.896762 18.017524-19.260952 29.013333-2.267429 5.948952-3.974095 11.946667-5.12 18.017524a118.418286 118.418286 0 0 0 2.340571 50.614857c1.852952 5.924571 4.242286 11.629714 7.216762 17.139809 2.80381 4.949333 6.144 9.679238 9.947428 14.189715 7.753143 8.338286 16.944762 14.750476 27.526096 19.260952 11.142095 4.388571 22.723048 6.656 34.718476 6.777905a124.830476 124.830476 0 0 0 30.72-4.217905c10.166857-2.56 19.480381-6.851048 27.940571-12.921905v-84.504381h-57.173333v31.98781h15.457524v34.523428c-4.632381 0.975238-9.313524 1.389714-13.970286 1.26781a41.423238 41.423238 0 0 1-32.402286-15.043048c-4.388571-5.778286-7.484952-12.190476-9.313523-19.260952a85.284571 85.284571 0 0 1 0-39.399619c2.121143-7.192381 5.510095-13.702095 10.166857-19.480381 4.510476-5.071238 9.801143-9.020952 15.872-11.849143 6.217143-2.56 12.702476-3.900952 19.504762-4.022857a113.566476 113.566476 0 0 1 41.691428 7.411809l1.072762-33.03619a133.315048 133.315048 0 0 0-23.503238-5.948952 171.78819 171.78819 0 0 0-25.404952-2.316191z m-282.721524 4.242286h-66.706286v168.350476h42.349714v-51.248762h10.605715c10.142476 0 20.309333-0.926476 30.47619-2.755047 5.36381-1.121524 10.605714-2.681905 15.676952-4.656762 4.388571-1.974857 8.46019-4.315429 12.288-6.997334a48.274286 48.274286 0 0 0 15.457524-19.480381c3.242667-8.192 4.87619-16.725333 4.876191-25.6a69.802667 69.802667 0 0 0-4.242286-22.893714 54.467048 54.467048 0 0 0-13.141333-19.260952 59.855238 59.855238 0 0 0-23.064381-12.288 112.688762 112.688762 0 0 0-24.576-3.169524z m188.903619 0h-112.664381v168.350476h112.883809V658.285714h-70.534095v-36.425143h61.196191v-30.47619h-61.196191v-33.694476h70.314667v-33.889524z m-192.926476 33.889524c3.803429 0.121905 7.558095 0.828952 11.215238 2.096762 3.267048 1.26781 6.144 3.120762 8.704 5.510095 4.510476 4.949333 6.753524 10.727619 6.753524 17.359238 0 7.070476-2.608762 12.921905-7.801905 17.578667-2.852571 2.413714-6.022095 4.144762-9.557334 5.290666-3.803429 0.975238-7.68 1.487238-11.629714 1.487238h-18.017524v-49.347047h20.333715z m156.769523-387.096381L268.190476 170.666667v243.809523h487.619048v-49.956571h-174.372572L581.412571 170.666667z m73.142858 39.740952v80.993524h81.042285l-81.042285-80.993524z" p-id="17932"></path></svg>